<svg id="Layer_1" data-name="Layer 1" xmlns="http://www.w3.org/2000/svg" xmlns:xlink="http://www.w3.org/1999/xlink" viewBox="0 0 143 143"><defs><style>.cls-1,.cls-4,.cls-5{fill:none;}.cls-2{fill:#e3e3e3;}.cls-3{fill:#b1c6dc;}.cls-4{stroke:#fff;stroke-width:0.96px;}.cls-4,.cls-5{stroke-miterlimit:10;}.cls-5{stroke:#ee6524;stroke-width:1.44px;}.cls-6{fill:#f26322;}.cls-7{clip-path:url(#clip-path);}</style><clipPath id="clip-path"><polygon class="cls-1" points="72.26 105.37 43.32 88.83 43.32 55.76 101.19 55.76 101.19 88.83 72.26 105.37"/></clipPath></defs><title>20180809_</title><g id="Products_icon_-_Dark_bg" data-name="Products icon - Dark bg"><g id="Layer_1-2" data-name="Layer 1"><polygon class="cls-2" points="72.26 105.37 43.32 88.83 43.32 55.76 101.19 55.76 101.19 88.83 72.26 105.37"/><polygon class="cls-3" points="72.26 72.29 43.32 55.76 72.26 39.22 101.19 55.76 72.26 72.29"/><path class="cls-4" d="M98.92,37.24a44,44,0,0,1,17.37,35.05"/><path class="cls-4" d="M31.68,88.61A44.16,44.16,0,0,1,28.4,69.27"/><path class="cls-4" d="M127.94,49.56A60,60,0,0,1,121,107.35"/><path class="cls-4" d="M12.22,72.29a60,60,0,0,1,60-60"/><path class="cls-4" d="M69.49,132.31a60.21,60.21,0,0,1-44.32-22.76"/><circle class="cls-5" cx="12.39" cy="73.93" r="1.77"/><circle class="cls-6" cx="72.18" cy="12.47" r="3.47"/><circle class="cls-5" cx="28.46" cy="67.87" r="1.58"/><circle class="cls-5" cx="127.33" cy="47.94" r="1.77"/><circle class="cls-5" cx="120.14" cy="108.51" r="1.66"/><circle class="cls-5" cx="70.98" cy="132.31" r="1.7"/><circle class="cls-5" cx="23.39" cy="107.14" r="2.95"/><circle class="cls-5" cx="32.79" cy="91.27" r="2.95"/><circle class="cls-5" cx="116.29" cy="73.66" r="1.51"/><circle class="cls-5" cx="97.36" cy="35.88" r="1.98"/><line class="cls-4" x1="72.26" y1="36.28" x2="72.26" y2="18.28"/><g class="cls-7"><line class="cls-4" x1="72.26" y1="110.81" x2="72.26" y2="78.49"/></g></g></g></svg>